PathFileType	4	(X/Y/Z)	OpenSim_Sub08_CSStiffKnee_Accel.trc
DataRate	CameraRate	NumFrames	NumMarkers	Units	OrigDataRate	OrigDataStartFrame	OrigNumFrames
100	100	21	8	m	100	1	5282
Frame#	Time	torso_imu_offset_imu	pelvis_imu_offset_imu	tibia_r_imu_offset_imu	femur_r_imu_offset_imu	tibia_l_imu_offset_imu	femur_l_imu_offset_imu	toes_r_imu_offset_imu	toes_l_imu_offset_imu
				X1	Y1	Z1	X2	Y2	Z2	X3	Y3	Z3	X4	Y4	Z4	X5	Y5	Z5	X6	Y6	Z6	X7	Y7	Z7	X8		Y8	Z8	

1	0	9.10358139	-0.03430536	6.50084918	9.41405532	0.21288025	3.41450213	9.88756791	0.10891713	0.93847694	9.79919873	-0.21816150	1.89140292	9.72404166	-0.29662568	1.45256062	9.67588666	1.71745282	0.15974772	5.10167039	-1.53601090	8.48821268	5.48852397	0.52440742	10.90318090
2	0.01000000	9.12768560	0.07355620	6.46608201	9.41021990	0.23226705	3.41185868	9.89754245	0.05794422	0.91876197	9.81804882	-0.13578846	1.92015938	9.72398061	-0.37144629	1.46141619	9.68954473	1.69188442	0.10589710	5.06748440	-1.53537491	8.46111508	5.51226091	0.47644440	10.87640320
3	0.02000000	9.11773459	0.10458842	6.48298039	9.39241432	0.26296066	3.39019551	9.88527192	0.01271310	0.93163782	9.81302575	-0.10140417	1.93748981	9.71181053	-0.37254391	1.41536335	9.68711268	1.68795400	0.10323902	5.09095840	-1.56241359	8.45448302	5.48517379	0.51960660	10.87566293
4	0.03000000	9.09623815	0.07722137	6.46359406	9.38855218	0.29444956	3.37841952	9.87437688	-0.01190198	0.95628899	9.78981219	-0.04220198	1.94045887	9.71312965	-0.34226994	1.41939177	9.66536705	1.73058045	0.09159895	5.10063238	-1.53307672	8.47220548	5.46372894	0.49449383	10.88325308
5	0.04000000	9.11827267	0.05264698	6.43729000	9.40136172	0.30225936	3.38466703	9.88275820	-0.04057191	0.94509283	9.79206698	0.01446685	1.94019095	9.74565911	-0.39460308	1.43397231	9.68758999	1.77603869	0.12339243	5.09223971	-1.55601417	8.48292869	5.47496193	0.43250733	10.89128736
6	0.05000000	9.11702080	0.02906497	6.49054293	9.41941620	0.34172564	3.42494786	9.88408796	-0.05556087	0.93519432	9.84032277	-0.04350629	1.96028683	9.70532892	-0.39272199	1.43104210	9.64785712	1.83125618	0.17225996	5.09173653	-1.54534061	8.50411375	5.49479907	0.51502961	10.87322273
7	0.06000000	9.06762025	0.04726315	6.52945002	9.41217423	0.35172895	3.43601227	9.86681972	-0.05736113	0.94120464	9.84143519	-0.05863167	1.96283735	9.68277746	-0.37287608	1.42958814	9.62706754	1.85846223	0.23190050	5.07956805	-1.55902576	8.47105930	5.48696803	0.45794047	10.88122273
8	0.07000000	9.06414284	0.07766579	6.49886610	9.40099837	0.31975406	3.40569557	9.88557454	-0.05273275	0.96631662	9.85313523	-0.08532401	1.95862275	9.70939173	-0.32553383	1.45492420	9.65078234	1.87165854	0.31893118	5.09516664	-1.52980496	8.43469666	5.49924820	0.50537765	10.89982447
9	0.08000000	9.06519140	0.05473831	6.48248770	9.40710455	0.30379593	3.43901245	9.88961361	-0.00524111	0.96965151	9.84598353	-0.12409853	1.92834139	9.72063151	-0.28706972	1.44849545	9.66091658	1.88956997	0.31755004	5.08472215	-1.52380838	8.46646282	5.49803494	0.49898620	10.86589578
10	0.09000000	9.09328069	0.07007084	6.49015847	9.38335605	0.28499949	3.44286752	9.88599763	0.06942133	0.97278873	9.80574078	-0.12132973	1.89049145	9.72945387	-0.25471991	1.45470789	9.65294884	1.91578657	0.28849053	5.07368465	-1.55444575	8.50594231	5.47418980	0.49197943	10.87388718
11	0.10000000	9.09221634	0.07782482	6.45718729	9.34996561	0.28205526	3.43436874	9.89873887	0.04535780	0.98320419	9.79654983	-0.13099417	1.90509844	9.73652165	-0.29140502	1.45619463	9.66674145	1.92562901	0.23790845	5.07890852	-1.54779074	8.46601720	5.46539272	0.52850408	10.88015776
12	0.11000000	9.11781295	0.02846412	6.46602286	9.36020449	0.27655774	3.43012453	9.87727077	0.02165997	0.94240277	9.79204638	-0.16095734	1.91580080	9.73751529	-0.29942576	1.45981234	9.67615663	1.93846001	0.22260766	5.10130752	-1.57584204	8.46474877	5.46312117	0.46185163	10.86102128
13	0.12000000	9.10028674	0.04543008	6.47480177	9.36887654	0.25369416	3.40718126	9.88867541	0.00647384	0.94113335	9.80521265	-0.16951473	1.89823599	9.72477068	-0.28902858	1.51363274	9.64575479	1.96295320	0.23311503	5.07683215	-1.54887859	8.47087347	5.47420571	0.53784278	10.93094662
14	0.13000000	9.09480420	0.04485681	6.44724018	9.36704071	0.26157337	3.41418504	9.91520559	0.02925806	0.89098845	9.80813866	-0.13374198	1.89056260	9.76218824	-0.29368356	1.49296293	9.65184907	1.97337744	0.19629661	5.07717801	-1.55061510	8.48694385	5.48319136	0.45414188	10.87438850
15	0.14000000	9.11925031	0.06332744	6.46253727	9.36796574	0.25168560	3.40451533	9.89190673	0.05236878	0.91277497	9.79305258	-0.14586310	1.91323486	9.74640049	-0.31224081	1.44609327	9.66384579	1.97695917	0.17504042	5.07681768	-1.55509715	8.48422987	5.47602699	0.48815421	10.90720351
16	0.15000000	9.11035467	0.08871420	6.50126412	9.39319844	0.24089498	3.38794350	9.88237638	0.08267518	0.94596428	9.79150026	-0.17837600	1.93019433	9.69725155	-0.34255221	1.43594847	9.65227589	1.96626187	0.21698120	5.07434603	-1.53086668	8.48350867	5.49842670	0.53390828	10.91682947
17	0.16000000	9.07785826	0.06299853	6.48294426	9.42751423	0.24876172	3.36816202	9.89409238	0.10664111	0.91979466	9.81489287	-0.15302153	1.95097043	9.70687767	-0.34511271	1.43771485	9.60620828	1.93047186	0.24867413	5.09201283	-1.55914224	8.47920470	5.50319521	0.47841656	10.85360775
18	0.17000000	9.07706616	0.06025318	6.47077986	9.40471600	0.28121725	3.37901877	9.87533808	0.06447624	0.95461795	9.81965875	-0.13943827	1.96426431	9.70811351	-0.33432044	1.44256036	9.60843236	1.89000756	0.24222239	5.09776467	-1.54366174	8.45886103	5.49443070	0.48741036	10.89305053
19	0.18000000	9.13755823	0.02619451	6.45525806	9.39595540	0.30181178	3.36695114	9.89680266	0.06122369	0.94004665	9.79562025	-0.13273613	1.94587733	9.71919690	-0.35538628	1.46386294	9.62945041	1.85996216	0.21884745	5.07775151	-1.52083782	8.47237841	5.47096525	0.52032050	10.87372862
20	0.19000000	9.11775342	0.03748703	6.43032253	9.40513366	0.29821251	3.37854218	9.91170177	0.07416375	0.94520907	9.81719063	-0.10407747	1.94381436	9.73733888	-0.41224818	1.47869624	9.64380463	1.81842619	0.19268846	5.07534016	-1.54583999	8.47373819	5.46546970	0.48493263	10.89985137
21	0.20000000	9.12610120	0.04592862	6.46143169	9.43807958	0.28738881	3.37798128	9.91847801	0.07246268	0.96042382	9.82991472	-0.09758062	1.92659534	9.75623069	-0.35464424	1.45283022	9.67297256	1.82248808	0.19359947	5.09621261	-1.52673258	8.46838506	5.45885610	0.50303598	10.93080139
